# xmcd
#
# Track frame offsets: 
#        150
#        10710
#        20393
#        28785
#        37870
#        47560
#        57143
#        65795
#        76633
#        84448
#        96063
#        107680
#        115625
#        126083
#        136885
#        148295
#        160420
#        171303
#        183948
#        201615
#        215518
#        227153
#        237568
#        247685
#        256495
#        267813
#        278338
#
# Disc length: 3859 seconds
#
# Revision: 2
# Processed by: cddbd v1.5.2PL0 Copyright (c) Steve Scherf et al.
# Submitted via: ExactAudioCopy v1.1
#
DISCID=6d0f111b
DTITLE=Allen Toussaint - The Complete 'Tousan' Sessions
DYEAR=1992
DGENRE=R&B
TTITLE0=Whirlaway (mono)
TTITLE1=Happy Times (mono)
TTITLE2=Up The Creek (mono)
TTITLE3=Tim Tam (mono)
TTITLE4=Me And You (mono)
TTITLE5=Bono (mono)
TTITLE6=Java (mono)
TTITLE7=Wham Tousan (mono)
TTITLE8=Nowhere To Go (mono)
TTITLE9=Nashua (mono)
TTITLE10=Po Boy Walk (mono)
TTITLE11=Pelican Parade (mono)
TTITLE12=Chico (mono)
TTITLE13=Back Home Again In Indiana (mono)
TTITLE14=Second Liner (mono)
TTITLE15=Cow Cow Blues (stereo)
TTITLE16=Moo Moo (stereo)
TTITLE17=Sweetie Pie (Twenty Years Later) (stereo)
TTITLE18=You Didn't Know, Did You (stereo)
TTITLE19=Up Right (stereo)
TTITLE20=A Blue Mood (stereo)
TTITLE21=A Lazy Day (without organ) (stereo)
TTITLE22=Naomi (stereo)
TTITLE23=Al's Theme (stereo)
TTITLE24=Real Churchy (without organ) (stereo)
TTITLE25=A Lazy Day (with organ) (stereo)
TTITLE26=Real Churchy (with organ) (stereo)
EXTD=
EXTT0=
EXTT1=
EXTT2=
EXTT3=
EXTT4=
EXTT5=
EXTT6=
EXTT7=
EXTT8=
EXTT9=
EXTT10=
EXTT11=
EXTT12=
EXTT13=
EXTT14=
EXTT15=
EXTT16=
EXTT17=
EXTT18=
EXTT19=
EXTT20=
EXTT21=
EXTT22=
EXTT23=
EXTT24=
EXTT25=
EXTT26=
PLAYORDER=
